<svg width="50" height="50" viewBox="0 0 50 50" fill="none" xmlns="http://www.w3.org/2000/svg">
<rect x="0.75" y="0.75" width="48.5" height="48.5" rx="9.25" fill="white"/>
<path d="M20.3412 14H16.7176C15.2167 14 14 15.2167 14 16.7176V20.3412C14 21.8421 15.2167 23.0588 16.7176 23.0588H20.3412C21.8421 23.0588 23.0588 21.8421 23.0588 20.3412V16.7176C23.0588 15.2167 21.8421 14 20.3412 14Z" stroke="#172926" stroke-width="2"/>
<path d="M33.2823 14H29.6588C28.1579 14 26.9412 15.2167 26.9412 16.7176V20.3412C26.9412 21.8421 28.1579 23.0588 29.6588 23.0588H33.2823C34.7833 23.0588 36 21.8421 36 20.3412V16.7176C36 15.2167 34.7833 14 33.2823 14Z" stroke="#172926" stroke-width="2"/>
<path d="M33.2823 26.9414H29.6588C28.1579 26.9414 26.9412 28.1581 26.9412 29.6591V33.2826C26.9412 34.7835 28.1579 36.0002 29.6588 36.0002H33.2823C34.7833 36.0002 36 34.7835 36 33.2826V29.6591C36 28.1581 34.7833 26.9414 33.2823 26.9414Z" stroke="#172926" stroke-width="2"/>
<path d="M20.3412 26.9414H16.7176C15.2167 26.9414 14 28.1581 14 29.6591V33.2826C14 34.7835 15.2167 36.0002 16.7176 36.0002H20.3412C21.8421 36.0002 23.0588 34.7835 23.0588 33.2826V29.6591C23.0588 28.1581 21.8421 26.9414 20.3412 26.9414Z" stroke="#172926" stroke-width="2"/>
<rect x="0.75" y="0.75" width="48.5" height="48.5" rx="9.25" stroke="#F1F3FD" stroke-width="1.5"/>
</svg>
